<svg xmlns="http://www.w3.org/2000/svg" xml:space="preserve" width="1000px" height="148.83px" x="0px" y="0px" viewBox="0 0 1000 148.83"><path fill="#A50034" d="M75.325 148.682c41.016 0 74.325-33.216 74.325-74.251S116.34.148 75.325.148C34.252.148 1 33.395 1 74.431s33.252 74.251 74.325 74.251"/><g fill="#FFF"><path d="M72.335 41.834v65.164h20.717v-5.861H78.307V41.834zM51.591 59.613c4.933 0 8.902-4.006 8.902-8.899 0-4.897-3.97-8.921-8.902-8.921-4.923 0-8.901 4.023-8.901 8.921 0 4.895 3.979 8.899 8.901 8.899"/><path d="M78.303 12.271a81.22 81.22 0 0 0-2.96-.086c-34.306 0-62.227 27.931-62.227 62.213 0 16.655 6.47 32.265 18.193 44.003 11.771 11.706 27.383 18.18 44.034 18.18 16.587 0 32.2-6.473 43.947-18.18 11.749-11.738 18.254-27.348 18.254-44.003V71.63H93.11v5.729h38.504c0 .125 0 .732-.025.893-1.956 29.311-26.438 52.522-56.244 52.522-15.086 0-29.235-5.864-39.879-16.52-10.687-10.613-16.567-24.747-16.567-39.855 0-15.018 5.88-29.226 16.567-39.869 10.642-10.639 24.792-16.504 39.878-16.504.649 0 2.231 0 2.96.036v-5.791z"/></g><g fill="#6B6B6B"><path d="M205.545 25.155h-22.331v96.681h68.595v-18.817h-46.264V25.155zm95.394 59.836h18.192v16.905c-3.354 1.275-9.894 2.551-16.117 2.551-20.101 0-26.799-10.206-26.799-30.945 0-19.772 6.378-31.43 26.479-31.43 11.173 0 17.551 3.512 22.81 10.212l13.885-12.766c-8.459-12.118-23.298-15.786-37.172-15.786-31.273 0-47.7 17.07-47.7 49.609 0 32.383 14.833 49.931 47.543 49.931 14.994 0 29.67-3.825 37.646-9.407V66.958H300.94v18.033zM626.318 52.729c-24.54 0-34.94 11.6-34.94 35.069 0 22.006 7.468 35.475 32.14 35.475 23.872 0 35.073-11.337 35.073-34.807-.001-22.939-7.469-35.737-32.273-35.737zm-2.405 56.542c-10.134 0-12.933-7.869-12.933-21.338 0-15.205 3.2-21.206 14.937-21.206 10.8 0 13.071 8.002 13.071 20.538.001 15.468-2.938 22.006-15.075 22.006zM525.191 86.331c0-19.201-8.668-33.604-30.14-33.604s-32.671 12.8-32.671 34.938c0 23.466 8.534 35.605 33.606 35.605 11.864 0 22.801-3.602 28.003-7.067l-3.6-12.668c-5.735 2.933-14.137 5.067-20.938 5.067-6.802 0-11.867-2-14.003-4.268-2.531-2.8-3.733-7.335-3.733-12h43.475l.001-6.003zm-43.475-6.401c.267-9.332 4.801-13.87 12.802-13.87 8.265 0 11.6 5.737 11.6 13.87h-24.402zM453.446 25.155v96.681h-20.534V81.697H394.24v40.139h-20.537V25.155h20.537v39.606h38.672V25.155h20.534zM552.524 25.155v96.681h-19.471V25.155h19.471zM583.049 25.155v96.681h-19.472V25.155h19.472zM853.533 54.257v67.579h-19.471V54.257h19.471zM853.533 25.155v16.391h-19.471V25.155h19.471zM762.257 54.257v67.579h-19.471V54.257h19.471zM762.257 25.155v16.391h-19.471V25.155h19.471zM896.804 52.727c-24.54 0-34.941 11.602-34.941 35.071 0 22.006 7.468 35.475 32.142 35.475 23.867 0 35.072-11.337 35.072-34.807-.001-22.94-7.472-35.739-32.273-35.739zm-2.405 56.542c-10.135 0-12.932-7.866-12.932-21.335 0-15.205 3.199-21.208 14.935-21.208 10.802 0 13.072 8.004 13.072 20.54-.001 15.467-2.94 22.003-15.075 22.003zM937.404 54.257v67.488h19.416V72.07c2.409-1.742 7.227-3.479 11.251-3.479 9.507 0 11.516 3.744 11.516 11.247v41.907H999V75.147c0-13.521-4.82-22.495-21.021-22.495-7.503 0-15.538 1.874-21.426 5.759v-4.154h-19.149zM825.876 58.823c-7.862-3.597-15.46-5.862-26.385-5.862-18.794 0-28.78 7.995-28.78 20.385 0 12.661 8.126 18.394 18.514 20.79l7.606 1.73c6.792 1.466 11.059 3.732 11.059 7.062 0 4.135-4.267 6.264-10.396 6.264-7.735 0-16.797-2.528-22.387-5.731l-4.931 13.861c6.79 3.601 15.322 6.263 27.185 6.263 17.982 0 29.046-7.063 29.046-21.853 0-9.863-6.129-15.461-14.259-17.856-2.259-.669-6.397-1.864-9.325-2.532-7.063-1.469-14.124-2.933-14.124-8.264 0-3.994 4.264-6.127 11.191-6.127 7.728 0 15.188 1.997 20.521 4.931l5.465-13.061zM715.272 25.063l-20.049 77.876h-2.281l-20.049-77.876h-21.736l29.125 96.682h27.604l29.123-96.682z"/></g></svg>