<svg xmlns="http://www.w3.org/2000/svg" width="195.811" height="212.045" fill-rule="evenodd" viewBox="0 0 146.85825 159.03375"><path fill="#EF7D28" d="M80.639 142.947v-34.773c0-9.259 2.586-17.286 9.378-19.756l28.966-10.32c.729-1.816 2.074-5.443 1.969-10.54-.358-17.595-10.013-30.361-23.328-34.729L18.292 8.016 38.988.608C40.1.219 41.481 0 42.708 0c1.302 0 2.84.26 3.863.596l80.947 25.299c14.087 4.693 19.34 21.533 19.34 30.638 0 7.391-2.523 15.92-10.378 18.778-6.985 2.543-27.948 10.049-27.948 10.049-.763 1.807-1.976 5.216-1.976 12.699 0 4.262-.069 27.215-.069 31.328 0 9.855-4.75 18.805-13.863 18.805-3.944 0-8.443-1.84-11.985-5.245"/><path fill="#E3183E" d="M59.886 63.924c4.166 6.326 6.273 14.295 6.273 21.045v29.166c0 18.055 8.346 32.772 22.097 36.969l-21.223 7.325c-4.245 1.488-8.417-.042-10.935-1.661-10.321-6.628-15.769-16.879-15.769-32.654 0-7.414-.052-17.556-.052-30.611 0-7.458-3.164-16.14-8.063-22.571-3.678-4.844-7.926-7.875-13.343-9.808C8.429 57.398 0 43.844 0 30.528c0-11.447 5.822-18.661 13.565-19.215 1.672-.119 3.084.186 4.428.598 4.595 1.4 8.307 2.677 8.307 2.677-2.568 13.241 5.154 33.555 20.732 39.055 6.108 2.164 9.724 5.525 12.854 10.281"/></svg>